<?xml version="1.0" encoding="utf-8"?>
<!-- Generator: Adobe Illustrator 21.0.2, SVG Export Plug-In . SVG Version: 6.00 Build 0)  -->
<svg version="1.1" id="Capa_1" xmlns="http://www.w3.org/2000/svg" xmlns:xlink="http://www.w3.org/1999/xlink" x="0px" y="0px"
	 viewBox="0 0 444 175.2" style="enable-background:new 0 0 444 175.2;" xml:space="preserve">
<style type="text/css">
	.st0{fill:#FFFFFF;}
</style>
<g>
	<g>
		<path class="st0" d="M98,128c-1.6-1-2-3.1-1.1-4.6l0,0c1-1.6,3.1-2,4.6-1l0,0c1.6,1,2,3.1,1,4.6l0,0c-0.1,0.2-0.3,0.4-0.5,0.6l0,0
			C101,128.6,99.3,128.9,98,128z"/>
		<path class="st0" d="M88.3,113.6c-1.6-1-2-3.1-1-4.6l0,0c1-1.6,3.1-2,4.6-1l0,0c1.6,1,2,3.1,1,4.6l0,0c-0.1,0.2-0.3,0.4-0.5,0.6
			l0,0C91.4,114.2,89.7,114.4,88.3,113.6z"/>
		<path class="st0" d="M85.4,97.2c-1.6-1-2-3.1-1.1-4.6l0,0c1-1.6,3.1-2,4.6-1l0,0c1.6,1,2,3.1,1,4.6l0,0c-0.1,0.2-0.3,0.4-0.5,0.6
			l0,0C88.5,97.8,86.8,98,85.4,97.2z"/>
		<path class="st0" d="M88.3,79.8c-1.6-1-2-3.1-1-4.6l0,0c1-1.6,3.1-2,4.6-1l0,0c1.6,1,2,3.1,1,4.6l0,0c-0.1,0.2-0.3,0.4-0.5,0.6
			l0,0C91.4,80.5,89.7,80.7,88.3,79.8z"/>
		<path class="st0" d="M98,66.3c-1.6-1-2-3.1-1.1-4.6l0,0c1-1.6,3.1-2,4.6-1l0,0c1.6,1,2,3.1,1,4.6l0,0c-0.1,0.2-0.3,0.4-0.5,0.6
			l0,0C101,67,99.3,67.2,98,66.3z"/>
		<path class="st0" d="M158.7,66.3c-1.6-1-2-3.1-1.1-4.6l0,0c1-1.6,3.1-2,4.6-1l0,0c1.6,1,2,3.1,1,4.6l0,0c-0.1,0.2-0.3,0.4-0.5,0.6
			l0,0C161.7,67,160,67.2,158.7,66.3z"/>
		<path class="st0" d="M168.3,80.8c-1.6-1-2-3.1-1.1-4.6l0,0c1-1.6,3.1-2,4.6-1l0,0c1.6,1,2,3.1,1,4.6l0,0c-0.1,0.2-0.3,0.4-0.5,0.6
			l0,0C171.4,81.4,169.7,81.6,168.3,80.8z"/>
		<path class="st0" d="M171.2,97.2c-1.6-1-2-3.1-1-4.6l0,0c1-1.6,3.1-2,4.6-1l0,0c1.6,1,2,3.1,1,4.6l0,0c-0.1,0.2-0.3,0.4-0.5,0.6
			l0,0C174.3,97.8,172.5,98,171.2,97.2z"/>
		<path class="st0" d="M168.3,113.6c-1.6-1-2-3.1-1.1-4.6l0,0c1-1.6,3.1-2,4.6-1l0,0c1.6,1,2,3.1,1,4.6l0,0
			c-0.1,0.2-0.3,0.4-0.5,0.6l0,0C171.4,114.2,169.7,114.4,168.3,113.6z"/>
		<path class="st0" d="M159.6,128c-1.6-1-2-3.1-1-4.6l0,0c1-1.6,3.1-2,4.6-1l0,0c1.6,1,2,3.1,1,4.6l0,0c-0.1,0.2-0.3,0.4-0.5,0.6
			l0,0C162.7,128.6,161,128.9,159.6,128z"/>
		<path class="st0" d="M145.2,137.6c-1.6-1-2-3.1-1.1-4.6l0,0c1-1.6,3.1-2,4.6-1l0,0c1.6,1,2,3.1,1,4.6l0,0
			c-0.1,0.2-0.3,0.4-0.5,0.6l0,0C148.3,138.3,146.5,138.5,145.2,137.6z"/>
		<path class="st0" d="M127.8,140.5c-1.6-1-2-3.1-1-4.6l0,0c1-1.6,3.1-2,4.6-1l0,0c1.6,1,2,3.1,1,4.6l0,0c-0.1,0.2-0.3,0.4-0.5,0.6
			l0,0C130.9,141.2,129.2,141.4,127.8,140.5z"/>
		<path class="st0" d="M111.4,137.6c-1.6-1-2-3.1-1-4.6l0,0c1-1.6,3.1-2,4.6-1l0,0c1.6,1,2,3.1,1,4.6l0,0c-0.1,0.2-0.3,0.4-0.5,0.6
			l0,0C114.5,138.3,112.8,138.5,111.4,137.6z"/>
	</g>
	<path class="st0" d="M106.5,119.2c-1.2-0.8-1.6-2.4-0.8-3.6l0,0c0.8-1.2,2.4-1.6,3.6-0.8l0,0c1.2,0.8,1.6,2.4,0.8,3.6l0,0
		c-0.1,0.2-0.2,0.3-0.3,0.4l0,0C108.9,119.7,107.5,119.9,106.5,119.2z"/>
	<path class="st0" d="M99.4,108.6c-1.2-0.8-1.6-2.4-0.8-3.6l0,0c0.8-1.2,2.3-1.6,3.6-0.8l0,0c1.2,0.8,1.6,2.4,0.8,3.6l0,0
		c-0.1,0.2-0.2,0.3-0.3,0.4l0,0C101.8,109.1,100.5,109.3,99.4,108.6z"/>
	<path class="st0" d="M97.3,96.6c-1.2-0.8-1.6-2.4-0.8-3.6l0,0c0.8-1.2,2.4-1.6,3.6-0.8l0,0c1.2,0.8,1.6,2.4,0.8,3.6l0,0
		c-0.1,0.2-0.2,0.3-0.3,0.4l0,0C99.7,97.1,98.4,97.2,97.3,96.6z"/>
	<path class="st0" d="M99.4,83.9c-1.2-0.8-1.6-2.4-0.8-3.6l0,0c0.8-1.2,2.3-1.6,3.6-0.8l0,0c1.2,0.8,1.6,2.4,0.8,3.6l0,0
		c-0.1,0.2-0.2,0.3-0.3,0.4l0,0C101.8,84.3,100.5,84.5,99.4,83.9z"/>
	<path class="st0" d="M106.5,74c-1.2-0.8-1.6-2.4-0.8-3.6l0,0c0.8-1.2,2.4-1.6,3.6-0.8l0,0c1.2,0.8,1.6,2.4,0.8,3.6l0,0
		c-0.1,0.2-0.2,0.3-0.3,0.4l0,0C108.9,74.4,107.5,74.6,106.5,74z"/>
	<path class="st0" d="M151.1,74c-1.2-0.8-1.6-2.4-0.8-3.6l0,0c0.8-1.2,2.4-1.6,3.6-0.8l0,0c1.2,0.8,1.6,2.4,0.8,3.6l0,0
		c-0.1,0.2-0.2,0.3-0.3,0.4l0,0C153.4,74.4,152.1,74.6,151.1,74z"/>
	<path class="st0" d="M158.1,84.6c-1.2-0.8-1.6-2.4-0.8-3.6l0,0c0.8-1.2,2.4-1.6,3.6-0.8l0,0c1.2,0.8,1.6,2.4,0.8,3.6l0,0
		c-0.1,0.2-0.2,0.3-0.3,0.4l0,0C160.5,85.1,159.2,85.2,158.1,84.6z"/>
	<path class="st0" d="M160.3,96.6c-1.2-0.8-1.6-2.4-0.8-3.6l0,0c0.8-1.2,2.4-1.6,3.6-0.8l0,0c1.2,0.8,1.6,2.4,0.8,3.6l0,0
		c-0.1,0.2-0.2,0.3-0.3,0.4l0,0C162.6,97.1,161.3,97.2,160.3,96.6z"/>
	<path class="st0" d="M158.1,108.6c-1.2-0.8-1.6-2.4-0.8-3.6l0,0c0.8-1.2,2.4-1.6,3.6-0.8l0,0c1.2,0.8,1.6,2.4,0.8,3.6l0,0
		c-0.1,0.2-0.2,0.3-0.3,0.4l0,0C160.5,109.1,159.2,109.3,158.1,108.6z"/>
	<path class="st0" d="M151.8,119.2c-1.2-0.8-1.6-2.4-0.8-3.6l0,0c0.8-1.2,2.4-1.6,3.6-0.8l0,0c1.2,0.8,1.6,2.4,0.8,3.6l0,0
		c-0.1,0.2-0.2,0.3-0.3,0.4l0,0C154.1,119.7,152.8,119.9,151.8,119.2z"/>
	<path class="st0" d="M141.2,126.3c-1.2-0.8-1.6-2.4-0.8-3.6l0,0c0.8-1.2,2.4-1.6,3.6-0.8l0,0c1.2,0.8,1.6,2.4,0.8,3.6l0,0
		c-0.1,0.2-0.2,0.3-0.3,0.4l0,0C143.5,126.8,142.2,126.9,141.2,126.3z"/>
	<path class="st0" d="M128.4,128.4c-1.2-0.8-1.6-2.4-0.8-3.6l0,0c0.8-1.2,2.4-1.6,3.6-0.8l0,0c1.2,0.8,1.6,2.4,0.8,3.6l0,0
		c-0.1,0.2-0.2,0.3-0.3,0.4l0,0C130.8,128.9,129.5,129.1,128.4,128.4z"/>
	<path class="st0" d="M116.4,126.3c-1.2-0.8-1.6-2.4-0.8-3.6l0,0c0.8-1.2,2.4-1.6,3.6-0.8l0,0c1.2,0.8,1.6,2.4,0.8,3.6l0,0
		c-0.1,0.2-0.2,0.3-0.3,0.4l0,0C118.8,126.8,117.4,126.9,116.4,126.3z"/>
	<path class="st0" d="M206.5,85.6c-1.5,1.3-3.3,2.4-6.1,2.4c-5.4,0-7.5-5.1-7.5-9.8c0-4.7,2.3-9.4,7.5-9.4c2.4,0,4,0.6,5.5,1.5
		l-1.2,1.8c-1.2-0.8-2.6-1.3-4.2-1.3c-3.9,0-5.2,4.1-5.2,7.3c0,3.2,1.2,7.8,5.3,7.8c1.7,0,3.3-0.7,4.6-1.9L206.5,85.6z"/>
	<path class="st0" d="M212.7,69.2h2.3v18.4h-2.3V69.2z"/>
	<path class="st0" d="M222.7,69.2h5.5c1.2,0,7.9,0,7.9,9.2c0,9.2-6.7,9.2-7.9,9.2h-5.5V69.2z M227.2,85.7c2.6,0,6.4-0.1,6.4-7.2
		c0-7.1-3.9-7.2-6.4-7.2H225v14.5H227.2z"/>
	<path class="st0" d="M253.7,87.6l-1.9-5.5H245l-2,5.5h-2.4c2.2-6.1,4.6-12.8,6.7-18.4h2.6c2,5.6,4.3,12.3,6.4,18.4H253.7z
		 M249.8,75.8c-0.6-1.9-1-3.2-1.3-4.1h-0.1c-0.3,0.9-0.7,2.2-1.3,4.1l-1.6,4.5c0.9,0,2,0,2.9,0s2,0,2.9,0L249.8,75.8z"/>
	<path class="st0" d="M262.2,69.2h5.5c1.2,0,7.9,0,7.9,9.2c0,9.2-6.7,9.2-7.9,9.2h-5.5V69.2z M266.7,85.7c2.6,0,6.4-0.1,6.4-7.2
		c0-7.1-3.9-7.2-6.4-7.2h-2.2v14.5H266.7z"/>
	<path class="st0" d="M293.2,87.6l-1.9-5.5h-6.9l-2,5.5h-2.4c2.2-6.1,4.6-12.8,6.7-18.4h2.6c2,5.6,4.3,12.3,6.4,18.4H293.2z
		 M289.3,75.8c-0.6-1.9-1-3.2-1.3-4.1H288c-0.3,0.9-0.7,2.2-1.3,4.1l-1.6,4.5c0.9,0,2,0,2.9,0c0.9,0,2,0,2.9,0L289.3,75.8z"/>
	<path class="st0" d="M301.7,69.2h2.7l6.7,11.1c0.6,1,1.3,2.4,1.8,3.7h0.1c-0.1-2.1-0.1-3.8-0.1-5.6v-9.2h2.3v18.4h-2.6l-6.7-11.1
		c-0.6-1.1-1.2-2.2-2-3.8h-0.1c0.1,2,0.1,3.8,0.1,5.6l0,9.4h-2.3V69.2z"/>
	<path class="st0" d="M322.9,69.2h2.3v18.4h-2.3V69.2z"/>
	<path class="st0" d="M344.3,87.6l-1.9-5.5h-6.9l-2,5.5h-2.4c2.2-6.1,4.6-12.8,6.7-18.4h2.6c2,5.6,4.3,12.3,6.4,18.4H344.3z
		 M340.3,75.8c-0.6-1.9-1-3.2-1.3-4.1H339c-0.3,0.9-0.7,2.2-1.3,4.1l-1.6,4.5c0.9,0,2,0,2.9,0c0.9,0,2,0,2.9,0L340.3,75.8z"/>
	<g>
		<path class="st0" d="M195.3,96.9h2.3v18.3h-2.3V96.9z"/>
		<path class="st0" d="M202.6,96.9h2.6l6.5,11.1c0.6,1,1.3,2.3,1.8,3.6h0.1c-0.1-2.1-0.1-3.8-0.1-5.5v-9.2h2.2v18.3h-2.5l-6.5-11.1
			c-0.6-1.1-1.2-2.2-1.9-3.8h-0.1c0.1,2,0.1,3.8,0.1,5.5l0,9.3h-2.2V96.9z"/>
		<path class="st0" d="M224.7,98.9c-2.7,0.1-5.5,0.1-5.8,0.1v-2h13.8v2c-0.3,0-3,0-5.8-0.1v16.3h-2.3V98.9z"/>
		<path class="st0" d="M236,96.9h10.7V99c-0.3,0-5.6,0-8.4,0c0,0.3,0,4.4,0,5.8c2.6,0,7.2,0,7.5,0v2c-0.3,0-4.9,0-7.5,0
			c0,2.9,0,6.3,0,6.5c2.9,0,8.4,0,8.7,0v2.1h-11V96.9z"/>
		<path class="st0" d="M250.9,96.9h2.3c0,0.3,0,13.7-0.1,16.3c2.9-0.1,7.4-0.1,7.7-0.1v2.1h-9.9V96.9z"/>
		<path class="st0" d="M264.1,96.9h2.3v18.3h-2.3V96.9z"/>
		<path class="st0" d="M279.3,115.5c-5.9,0-9-3.9-9-9.6c0-5.3,2.6-9.3,8.2-9.3c1.7,0,3.5,0.4,5.1,1.2l-0.9,1.9
			c-1.1-0.6-2.8-1.1-4.4-1.1c-4.1,0-5.6,3.3-5.6,7.3c0,4.5,1.9,7.7,6.8,7.7c0.9,0,1.6-0.1,2.3-0.4c0-0.2,0-2.9,0.1-6.5
			c-2.2,0.1-2.8,0.1-3,0.1v-2h5.3v10C282.9,115.2,281.1,115.5,279.3,115.5z"/>
		<path class="st0" d="M288.8,96.9h10.7V99c-0.3,0-5.6,0-8.4,0c0,0.3,0,4.4,0,5.8c2.6,0,7.2,0,7.5,0v2c-0.3,0-4.9,0-7.5,0
			c0,2.9,0,6.3,0,6.5c2.9,0,8.4,0,8.7,0v2.1h-11V96.9z"/>
		<path class="st0" d="M303.8,96.9h2.6l6.5,11.1c0.6,1,1.3,2.3,1.8,3.6h0.1c-0.1-2.1-0.1-3.8-0.1-5.5v-9.2h2.2v18.3h-2.5l-6.5-11.1
			c-0.6-1.1-1.2-2.2-1.9-3.8h-0.1c0.1,2,0.1,3.8,0.1,5.5l0,9.3h-2.2V96.9z"/>
		<path class="st0" d="M325.9,98.9c-2.7,0.1-5.5,0.1-5.8,0.1v-2h13.8v2c-0.3,0-3,0-5.8-0.1v16.3h-2.3V98.9z"/>
		<path class="st0" d="M337.2,96.9h10.7V99c-0.3,0-5.6,0-8.4,0c0,0.3,0,4.4,0,5.8c2.6,0,7.2,0,7.5,0v2c-0.3,0-4.9,0-7.5,0
			c0,2.9,0,6.3,0,6.5c2.9,0,8.4,0,8.7,0v2.1h-11V96.9z"/>
	</g>
	<g>
		<g>
			<g>
				<path class="st0" d="M118.5,97.6c0.6,0,1.2,0.4,1.4,1c0.2,0.6,0.5,1.2,0.9,1.8c1.9,3.2,5.4,5.2,9.1,5.2c0.8,0,1.5,0.6,1.5,1.5
					c0,0.8-0.7,1.5-1.5,1.5c-4.7,0-9.2-2.5-11.6-6.6c-0.4-0.7-0.8-1.5-1.1-2.3c-0.3-0.8,0.1-1.6,0.9-1.9
					C118.2,97.6,118.4,97.6,118.5,97.6z"/>
			</g>
		</g>
		<circle class="st0" cx="117.7" cy="94.8" r="1.5"/>
		<g>
			<path class="st0" d="M145.8,84.5l-0.7-1.1h0c-0.7-1.1-1.5-2-2.2-2.9l-1.9,1.5c0.8,1,1.6,2,2.4,3.1l0.5,0.7h0
				c1.7,2.6,2.6,5.7,2.6,9c0,9-7.4,16.4-16.4,16.4c-9,0-16.4-7.4-16.4-16.4c0-3.3,0.9-6.4,2.7-9h0l0.5-0.7c0.8-1.1,1.6-2.2,2.4-3.2
				c2-2.6,4-5,4-8.2c0,0,0-1,0-1.1c0-2.1,0.9-2.8,3-2.8h4.1h3.7c2.2,0,3,0.8,3,2.8v1.1c0,3.2,1.9,5.7,4,8.2c0,0,0,0,0,0l1.9-1.6
				c-1.9-2.4-3.4-4.3-3.4-6.7l0-1.1c-0.1-3.4-2-5.2-5.5-5.2h-7.8c-4.4,0-5.4,2.9-5.5,5.2l0,1.1c0,2.4-1.6,4.4-3.4,6.7
				c-0.8,1-1.5,1.9-2.2,2.9h0l-0.7,1.1c-2,3-3.1,6.6-3.1,10.4c0,10.4,8.4,18.9,18.8,18.9h0h0c10.4,0,18.9-8.5,18.9-18.9
				C148.8,91.1,147.8,87.5,145.8,84.5z"/>
		</g>
		<path class="st0" d="M136.5,60.6l-12.7,0c-0.6,0-1.1,0.6-1.1,1.4c0,0.8,0.5,1.4,1.1,1.4l12.7,0c0.6,0,1.1-0.6,1.1-1.4
			C137.6,61.2,137.1,60.6,136.5,60.6z"/>
		<path class="st0" d="M136.5,54.7l-12.7,0c-0.6,0-1.1,0.6-1.1,1.4c0,0.8,0.5,1.4,1.1,1.4l12.7,0c0.6,0,1.1-0.6,1.1-1.4
			C137.6,55.3,137.1,54.7,136.5,54.7z"/>
	</g>
</g>
</svg>
