<?xml version="1.0" encoding="utf-8"?>
<!-- Generator: Adobe Illustrator 21.0.2, SVG Export Plug-In . SVG Version: 6.00 Build 0)  -->
<svg version="1.1" id="Capa_1" xmlns="http://www.w3.org/2000/svg" xmlns:xlink="http://www.w3.org/1999/xlink" x="0px" y="0px"
	 viewBox="0 0 444 175.2" style="enable-background:new 0 0 444 175.2;" xml:space="preserve">
<style type="text/css">
	.st0{fill:#181D37;}
	.st1{fill:#74C6CE;}
	.st2{fill:#F9B226;}
	.st3{fill:#E9463B;}
	.st4{fill:#D3326F;}
	.st5{fill:#FFFFFF;}
</style>
<rect x="30.2" y="18.2" class="st0" width="396" height="139"/>
<g>
	<g>
		<path class="st1" d="M110.2,122.2c-1.6-1-2-3.1-1.1-4.6l0,0c1-1.6,3.1-2,4.6-1l0,0c1.6,1,2,3.1,1,4.6l0,0
			c-0.1,0.2-0.3,0.4-0.5,0.6l0,0C113.2,122.8,111.5,123.1,110.2,122.2z"/>
		<path class="st1" d="M100.5,107.8c-1.6-1-2-3.1-1-4.6l0,0c1-1.6,3.1-2,4.6-1l0,0c1.6,1,2,3.1,1,4.6l0,0c-0.1,0.2-0.3,0.4-0.5,0.6
			l0,0C103.6,108.4,101.9,108.6,100.5,107.8z"/>
		<path class="st1" d="M97.6,91.4c-1.6-1-2-3.1-1.1-4.6l0,0c1-1.6,3.1-2,4.6-1l0,0c1.6,1,2,3.1,1,4.6l0,0c-0.1,0.2-0.3,0.4-0.5,0.6
			l0,0C100.7,92,99,92.2,97.6,91.4z"/>
		<path class="st1" d="M100.5,74c-1.6-1-2-3.1-1-4.6l0,0c1-1.6,3.1-2,4.6-1l0,0c1.6,1,2,3.1,1,4.6l0,0c-0.1,0.2-0.3,0.4-0.5,0.6l0,0
			C103.6,74.7,101.9,74.9,100.5,74z"/>
		<path class="st1" d="M110.2,60.5c-1.6-1-2-3.1-1.1-4.6l0,0c1-1.6,3.1-2,4.6-1l0,0c1.6,1,2,3.1,1,4.6l0,0c-0.1,0.2-0.3,0.4-0.5,0.6
			l0,0C113.2,61.2,111.5,61.4,110.2,60.5z"/>
		<path class="st1" d="M170.9,60.5c-1.6-1-2-3.1-1.1-4.6l0,0c1-1.6,3.1-2,4.6-1l0,0c1.6,1,2,3.1,1,4.6l0,0c-0.1,0.2-0.3,0.4-0.5,0.6
			l0,0C173.9,61.2,172.2,61.4,170.9,60.5z"/>
		<path class="st1" d="M180.5,75c-1.6-1-2-3.1-1.1-4.6l0,0c1-1.6,3.1-2,4.6-1l0,0c1.6,1,2,3.1,1,4.6l0,0c-0.1,0.2-0.3,0.4-0.5,0.6
			l0,0C183.6,75.6,181.9,75.8,180.5,75z"/>
		<path class="st1" d="M183.4,91.4c-1.6-1-2-3.1-1-4.6l0,0c1-1.6,3.1-2,4.6-1l0,0c1.6,1,2,3.1,1,4.6l0,0c-0.1,0.2-0.3,0.4-0.5,0.6
			l0,0C186.5,92,184.7,92.2,183.4,91.4z"/>
		<path class="st1" d="M180.5,107.8c-1.6-1-2-3.1-1.1-4.6l0,0c1-1.6,3.1-2,4.6-1l0,0c1.6,1,2,3.1,1,4.6l0,0
			c-0.1,0.2-0.3,0.4-0.5,0.6l0,0C183.6,108.4,181.9,108.6,180.5,107.8z"/>
		<path class="st1" d="M171.8,122.2c-1.6-1-2-3.1-1-4.6l0,0c1-1.6,3.1-2,4.6-1l0,0c1.6,1,2,3.1,1,4.6l0,0c-0.1,0.2-0.3,0.4-0.5,0.6
			l0,0C174.9,122.8,173.2,123.1,171.8,122.2z"/>
		<path class="st1" d="M157.4,131.8c-1.6-1-2-3.1-1.1-4.6l0,0c1-1.6,3.1-2,4.6-1l0,0c1.6,1,2,3.1,1,4.6l0,0
			c-0.1,0.2-0.3,0.4-0.5,0.6l0,0C160.5,132.5,158.7,132.7,157.4,131.8z"/>
		<path class="st1" d="M140,134.7c-1.6-1-2-3.1-1-4.6l0,0c1-1.6,3.1-2,4.6-1l0,0c1.6,1,2,3.1,1,4.6l0,0c-0.1,0.2-0.3,0.4-0.5,0.6
			l0,0C143.1,135.4,141.4,135.6,140,134.7z"/>
		<path class="st1" d="M123.6,131.8c-1.6-1-2-3.1-1-4.6l0,0c1-1.6,3.1-2,4.6-1l0,0c1.6,1,2,3.1,1,4.6l0,0c-0.1,0.2-0.3,0.4-0.5,0.6
			l0,0C126.7,132.5,125,132.7,123.6,131.8z"/>
	</g>
	<path class="st2" d="M118.7,113.4c-1.2-0.8-1.6-2.4-0.8-3.6l0,0c0.8-1.2,2.4-1.6,3.6-0.8l0,0c1.2,0.8,1.6,2.4,0.8,3.6l0,0
		c-0.1,0.2-0.2,0.3-0.3,0.4l0,0C121.1,113.9,119.7,114.1,118.7,113.4z"/>
	<path class="st3" d="M111.6,102.8c-1.2-0.8-1.6-2.4-0.8-3.6l0,0c0.8-1.2,2.3-1.6,3.6-0.8l0,0c1.2,0.8,1.6,2.4,0.8,3.6l0,0
		c-0.1,0.2-0.2,0.3-0.3,0.4l0,0C114,103.3,112.7,103.5,111.6,102.8z"/>
	<path class="st4" d="M109.5,90.8c-1.2-0.8-1.6-2.4-0.8-3.6l0,0c0.8-1.2,2.4-1.6,3.6-0.8l0,0c1.2,0.8,1.6,2.4,0.8,3.6l0,0
		c-0.1,0.2-0.2,0.3-0.3,0.4l0,0C111.9,91.3,110.6,91.4,109.5,90.8z"/>
	<path class="st1" d="M111.6,78.1c-1.2-0.8-1.6-2.4-0.8-3.6l0,0c0.8-1.2,2.3-1.6,3.6-0.8l0,0c1.2,0.8,1.6,2.4,0.8,3.6l0,0
		c-0.1,0.2-0.2,0.3-0.3,0.4l0,0C114,78.5,112.7,78.7,111.6,78.1z"/>
	<path class="st1" d="M118.7,68.2c-1.2-0.8-1.6-2.4-0.8-3.6l0,0c0.8-1.2,2.4-1.6,3.6-0.8l0,0c1.2,0.8,1.6,2.4,0.8,3.6l0,0
		c-0.1,0.2-0.2,0.3-0.3,0.4l0,0C121.1,68.6,119.7,68.8,118.7,68.2z"/>
	<path class="st2" d="M163.3,68.2c-1.2-0.8-1.6-2.4-0.8-3.6l0,0c0.8-1.2,2.4-1.6,3.6-0.8l0,0c1.2,0.8,1.6,2.4,0.8,3.6l0,0
		c-0.1,0.2-0.2,0.3-0.3,0.4l0,0C165.6,68.6,164.3,68.8,163.3,68.2z"/>
	<path class="st3" d="M170.3,78.8c-1.2-0.8-1.6-2.4-0.8-3.6l0,0c0.8-1.2,2.4-1.6,3.6-0.8l0,0c1.2,0.8,1.6,2.4,0.8,3.6l0,0
		c-0.1,0.2-0.2,0.3-0.3,0.4l0,0C172.7,79.3,171.4,79.4,170.3,78.8z"/>
	<path class="st4" d="M172.5,90.8c-1.2-0.8-1.6-2.4-0.8-3.6l0,0c0.8-1.2,2.4-1.6,3.6-0.8l0,0c1.2,0.8,1.6,2.4,0.8,3.6l0,0
		c-0.1,0.2-0.2,0.3-0.3,0.4l0,0C174.8,91.3,173.5,91.4,172.5,90.8z"/>
	<path class="st1" d="M170.3,102.8c-1.2-0.8-1.6-2.4-0.8-3.6l0,0c0.8-1.2,2.4-1.6,3.6-0.8l0,0c1.2,0.8,1.6,2.4,0.8,3.6l0,0
		c-0.1,0.2-0.2,0.3-0.3,0.4l0,0C172.7,103.3,171.4,103.5,170.3,102.8z"/>
	<path class="st1" d="M164,113.4c-1.2-0.8-1.6-2.4-0.8-3.6l0,0c0.8-1.2,2.4-1.6,3.6-0.8l0,0c1.2,0.8,1.6,2.4,0.8,3.6l0,0
		c-0.1,0.2-0.2,0.3-0.3,0.4l0,0C166.3,113.9,165,114.1,164,113.4z"/>
	<path class="st1" d="M153.4,120.5c-1.2-0.8-1.6-2.4-0.8-3.6l0,0c0.8-1.2,2.4-1.6,3.6-0.8l0,0c1.2,0.8,1.6,2.4,0.8,3.6l0,0
		c-0.1,0.2-0.2,0.3-0.3,0.4l0,0C155.7,121,154.4,121.1,153.4,120.5z"/>
	<path class="st1" d="M140.6,122.6c-1.2-0.8-1.6-2.4-0.8-3.6l0,0c0.8-1.2,2.4-1.6,3.6-0.8l0,0c1.2,0.8,1.6,2.4,0.8,3.6l0,0
		c-0.1,0.2-0.2,0.3-0.3,0.4l0,0C143,123.1,141.7,123.3,140.6,122.6z"/>
	<path class="st1" d="M128.6,120.5c-1.2-0.8-1.6-2.4-0.8-3.6l0,0c0.8-1.2,2.4-1.6,3.6-0.8l0,0c1.2,0.8,1.6,2.4,0.8,3.6l0,0
		c-0.1,0.2-0.2,0.3-0.3,0.4l0,0C131,121,129.6,121.1,128.6,120.5z"/>
	<path class="st5" d="M218.7,79.8c-1.5,1.3-3.3,2.4-6.1,2.4c-5.4,0-7.5-5.1-7.5-9.8s2.3-9.4,7.5-9.4c2.4,0,4,0.6,5.5,1.5l-1.2,1.8
		c-1.2-0.8-2.6-1.3-4.2-1.3c-3.9,0-5.2,4.1-5.2,7.3s1.2,7.8,5.3,7.8c1.7,0,3.3-0.7,4.6-1.9L218.7,79.8z"/>
	<path class="st5" d="M224.9,63.4h2.3v18.4h-2.3V63.4z"/>
	<path class="st5" d="M234.9,63.4h5.5c1.2,0,7.9,0,7.9,9.2s-6.7,9.2-7.9,9.2h-5.5V63.4z M239.4,79.9c2.6,0,6.4-0.1,6.4-7.2
		c0-7.1-3.9-7.2-6.4-7.2h-2.2V80L239.4,79.9L239.4,79.9z"/>
	<path class="st5" d="M265.9,81.8l-1.9-5.5h-6.8l-2,5.5h-2.4c2.2-6.1,4.6-12.8,6.7-18.4h2.6c2,5.6,4.3,12.3,6.4,18.4H265.9z M262,70
		c-0.6-1.9-1-3.2-1.3-4.1h-0.1c-0.3,0.9-0.7,2.2-1.3,4.1l-1.6,4.5c0.9,0,2,0,2.9,0s2,0,2.9,0L262,70z"/>
	<path class="st5" d="M274.4,63.4h5.5c1.2,0,7.9,0,7.9,9.2s-6.7,9.2-7.9,9.2h-5.5V63.4z M278.9,79.9c2.6,0,6.4-0.1,6.4-7.2
		c0-7.1-3.9-7.2-6.4-7.2h-2.2V80L278.9,79.9L278.9,79.9z"/>
	<path class="st5" d="M305.4,81.8l-1.9-5.5h-6.9l-2,5.5h-2.4c2.2-6.1,4.6-12.8,6.7-18.4h2.6c2,5.6,4.3,12.3,6.4,18.4H305.4z
		 M301.5,70c-0.6-1.9-1-3.2-1.3-4.1l0,0c-0.3,0.9-0.7,2.2-1.3,4.1l-1.6,4.5c0.9,0,2,0,2.9,0s2,0,2.9,0L301.5,70z"/>
	<path class="st5" d="M313.9,63.4h2.7l6.7,11.1c0.6,1,1.3,2.4,1.8,3.7h0.1c-0.1-2.1-0.1-3.8-0.1-5.6v-9.2h2.3v18.4h-2.6l-6.7-11.1
		c-0.6-1.1-1.2-2.2-2-3.8H316c0.1,2,0.1,3.8,0.1,5.6v9.4h-2.3V63.4H313.9z"/>
	<path class="st5" d="M335.1,63.4h2.3v18.4h-2.3V63.4z"/>
	<path class="st5" d="M356.5,81.8l-1.9-5.5h-6.9l-2,5.5h-2.4c2.2-6.1,4.6-12.8,6.7-18.4h2.6c2,5.6,4.3,12.3,6.4,18.4H356.5z
		 M352.5,70c-0.6-1.9-1-3.2-1.3-4.1l0,0c-0.3,0.9-0.7,2.2-1.3,4.1l-1.6,4.5c0.9,0,2,0,2.9,0s2,0,2.9,0L352.5,70z"/>
	<g>
		<path class="st5" d="M207.5,91.1h2.3v18.3h-2.3V91.1z"/>
		<path class="st5" d="M214.8,91.1h2.6l6.5,11.1c0.6,1,1.3,2.3,1.8,3.6h0.1c-0.1-2.1-0.1-3.8-0.1-5.5v-9.2h2.2v18.3h-2.5l-6.5-11.1
			c-0.6-1.1-1.2-2.2-1.9-3.8h-0.1c0.1,2,0.1,3.8,0.1,5.5v9.3h-2.2V91.1z"/>
		<path class="st5" d="M236.9,93.1c-2.7,0.1-5.5,0.1-5.8,0.1v-2h13.8v2c-0.3,0-3,0-5.8-0.1v16.3h-2.3L236.9,93.1L236.9,93.1z"/>
		<path class="st5" d="M248.2,91.1h10.7v2.1c-0.3,0-5.6,0-8.4,0c0,0.3,0,4.4,0,5.8c2.6,0,7.2,0,7.5,0v2c-0.3,0-4.9,0-7.5,0
			c0,2.9,0,6.3,0,6.5c2.9,0,8.4,0,8.7,0v2.1h-11L248.2,91.1L248.2,91.1z"/>
		<path class="st5" d="M263.1,91.1h2.3c0,0.3,0,13.7-0.1,16.3c2.9-0.1,7.4-0.1,7.7-0.1v2.1h-9.9V91.1z"/>
		<path class="st5" d="M276.3,91.1h2.3v18.3h-2.3V91.1z"/>
		<path class="st5" d="M291.5,109.7c-5.9,0-9-3.9-9-9.6c0-5.3,2.6-9.3,8.2-9.3c1.7,0,3.5,0.4,5.1,1.2l-0.9,1.9
			c-1.1-0.6-2.8-1.1-4.4-1.1c-4.1,0-5.6,3.3-5.6,7.3c0,4.5,1.9,7.7,6.8,7.7c0.9,0,1.6-0.1,2.3-0.4c0-0.2,0-2.9,0.1-6.5
			c-2.2,0.1-2.8,0.1-3,0.1v-2h5.3v10C295.1,109.4,293.3,109.7,291.5,109.7z"/>
		<path class="st5" d="M301,91.1h10.7v2.1c-0.3,0-5.6,0-8.4,0c0,0.3,0,4.4,0,5.8c2.6,0,7.2,0,7.5,0v2c-0.3,0-4.9,0-7.5,0
			c0,2.9,0,6.3,0,6.5c2.9,0,8.4,0,8.7,0v2.1h-11L301,91.1L301,91.1z"/>
		<path class="st5" d="M316,91.1h2.6l6.5,11.1c0.6,1,1.3,2.3,1.8,3.6h0.1c-0.1-2.1-0.1-3.8-0.1-5.5v-9.2h2.2v18.3h-2.5l-6.5-11.1
			c-0.6-1.1-1.2-2.2-1.9-3.8h-0.1c0.1,2,0.1,3.8,0.1,5.5v9.3H316V91.1z"/>
		<path class="st5" d="M338.1,93.1c-2.7,0.1-5.5,0.1-5.8,0.1v-2h13.8v2c-0.3,0-3,0-5.8-0.1v16.3H338L338.1,93.1L338.1,93.1z"/>
		<path class="st5" d="M349.4,91.1h10.7v2.1c-0.3,0-5.6,0-8.4,0c0,0.3,0,4.4,0,5.8c2.6,0,7.2,0,7.5,0v2c-0.3,0-4.9,0-7.5,0
			c0,2.9,0,6.3,0,6.5c2.9,0,8.4,0,8.7,0v2.1h-11L349.4,91.1L349.4,91.1z"/>
	</g>
	<g>
		<g>
			<g>
				<path class="st5" d="M130.7,91.8c0.6,0,1.2,0.4,1.4,1s0.5,1.2,0.9,1.8c1.9,3.2,5.4,5.2,9.1,5.2c0.8,0,1.5,0.6,1.5,1.5
					c0,0.8-0.7,1.5-1.5,1.5c-4.7,0-9.2-2.5-11.6-6.6c-0.4-0.7-0.8-1.5-1.1-2.3s0.1-1.6,0.9-1.9C130.4,91.8,130.6,91.8,130.7,91.8z"
					/>
			</g>
		</g>
		<circle class="st5" cx="129.9" cy="89" r="1.5"/>
		<g>
			<path class="st5" d="M158,78.7l-0.7-1.1l0,0c-0.7-1.1-1.5-2-2.2-2.9l-1.9,1.5c0.8,1,1.6,2,2.4,3.1l0.5,0.7l0,0
				c1.7,2.6,2.6,5.7,2.6,9c0,9-7.4,16.4-16.4,16.4S125.9,98,125.9,89c0-3.3,0.9-6.4,2.7-9l0,0l0.5-0.7c0.8-1.1,1.6-2.2,2.4-3.2
				c2-2.6,4-5,4-8.2c0,0,0-1,0-1.1c0-2.1,0.9-2.8,3-2.8h4.1h3.7c2.2,0,3,0.8,3,2.8v1.1c0,3.2,1.9,5.7,4,8.2l0,0l1.9-1.6
				c-1.9-2.4-3.4-4.3-3.4-6.7v-1.1c-0.1-3.4-2-5.2-5.5-5.2h-7.8c-4.4,0-5.4,2.9-5.5,5.2v1.1c0,2.4-1.6,4.4-3.4,6.7
				c-0.8,1-1.5,1.9-2.2,2.9l0,0l-0.7,1.1c-2,3-3.1,6.6-3.1,10.4c0,10.4,8.4,18.9,18.8,18.9l0,0l0,0c10.4,0,18.9-8.5,18.9-18.9
				C161,85.3,160,81.7,158,78.7z"/>
		</g>
		<path class="st5" d="M148.7,54.8H136c-0.6,0-1.1,0.6-1.1,1.4c0,0.8,0.5,1.4,1.1,1.4h12.7c0.6,0,1.1-0.6,1.1-1.4
			C149.8,55.4,149.3,54.8,148.7,54.8z"/>
		<path class="st5" d="M148.7,48.9H136c-0.6,0-1.1,0.6-1.1,1.4c0,0.8,0.5,1.4,1.1,1.4h12.7c0.6,0,1.1-0.6,1.1-1.4
			S149.3,48.9,148.7,48.9z"/>
	</g>
</g>
</svg>
