<?xml version="1.0" encoding="utf-8"?>
<!-- Generator: Adobe Illustrator 21.0.2, SVG Export Plug-In . SVG Version: 6.00 Build 0)  -->
<svg version="1.1" id="Capa_1" xmlns="http://www.w3.org/2000/svg" xmlns:xlink="http://www.w3.org/1999/xlink" x="0px" y="0px"
	 viewBox="0 0 176 62" style="enable-background:new 0 0 176 62;" xml:space="preserve">
<style type="text/css">
	.st0{fill:#FFFFFF;}
</style>
<g>
	<g>
		<path class="st0" d="M9.4,51.1c-1-0.7-1.4-2-0.7-3.1l0,0c0.7-1,2-1.4,3.1-0.7l0,0c1,0.7,1.4,2,0.7,3.1l0,0
			c-0.1,0.1-0.2,0.3-0.3,0.4l0,0C11.5,51.5,10.3,51.6,9.4,51.1z"/>
		<path class="st0" d="M3,41.4c-1-0.7-1.4-2-0.7-3.1l0,0c0.7-1,2-1.4,3.1-0.7l0,0c1,0.7,1.4,2,0.7,3.1l0,0C6,40.9,5.9,41,5.8,41.1
			l0,0C5,41.9,3.9,42,3,41.4z"/>
		<path class="st0" d="M1.1,30.5c-1-0.7-1.4-2-0.7-3.1l0,0c0.7-1,2-1.3,3.1-0.7l0,0c1,0.7,1.4,2,0.7,3.1l0,0C4.1,30,4,30.1,3.8,30.2
			l0,0C3.1,31,2,31.1,1.1,30.5z"/>
		<path class="st0" d="M3,19c-1-0.7-1.4-2-0.7-3.1l0,0c0.7-1,2-1.3,3.1-0.7l0,0c1,0.7,1.4,2,0.7,3.1l0,0c-0.1,0.1-0.2,0.3-0.3,0.4
			l0,0C5,19.4,3.9,19.6,3,19z"/>
		<path class="st0" d="M9.4,10c-1-0.7-1.4-2-0.7-3.1l0,0c0.7-1,2-1.3,3.1-0.7l0,0c1,0.7,1.4,2,0.7,3.1l0,0c-0.1,0.1-0.2,0.3-0.3,0.4
			l0,0C11.5,10.4,10.3,10.6,9.4,10z"/>
		<path class="st0" d="M49.8,10c-1-0.7-1.4-2-0.7-3.1l0,0c0.7-1,2-1.3,3.1-0.7l0,0c1,0.7,1.4,2,0.7,3.1l0,0
			c-0.1,0.1-0.2,0.3-0.3,0.4l0,0C51.9,10.4,50.7,10.6,49.8,10z"/>
		<path class="st0" d="M56.3,19.6c-1-0.7-1.4-2-0.7-3.1l0,0c0.7-1,2-1.4,3.1-0.7l0,0c1,0.7,1.4,2,0.7,3.1l0,0
			c-0.1,0.1-0.2,0.3-0.3,0.4l0,0C58.3,20,57.1,20.2,56.3,19.6z"/>
		<path class="st0" d="M58.2,30.5c-1-0.7-1.4-2-0.7-3.1l0,0c0.7-1,2-1.3,3.1-0.7l0,0c1,0.7,1.4,2,0.7,3.1l0,0
			c-0.1,0.1-0.2,0.3-0.3,0.4l0,0C60.2,31,59.1,31.1,58.2,30.5z"/>
		<path class="st0" d="M56.3,41.4c-1-0.7-1.4-2-0.7-3.1l0,0c0.7-1,2-1.4,3.1-0.7l0,0c1,0.7,1.4,2,0.7,3.1l0,0
			c-0.1,0.1-0.2,0.3-0.3,0.4l0,0C58.3,41.9,57.1,42,56.3,41.4z"/>
		<path class="st0" d="M50.5,51.1c-1-0.7-1.4-2-0.7-3.1l0,0c0.7-1,2-1.4,3.1-0.7l0,0c1,0.7,1.4,2,0.7,3.1l0,0
			c-0.1,0.1-0.2,0.3-0.3,0.4l0,0C52.5,51.5,51.4,51.6,50.5,51.1z"/>
		<path class="st0" d="M40.9,57.5c-1-0.7-1.4-2-0.7-3.1l0,0c0.7-1,2-1.3,3.1-0.7l0,0c1,0.7,1.4,2,0.7,3.1l0,0
			c-0.1,0.1-0.2,0.3-0.3,0.4l0,0C42.9,57.9,41.7,58,40.9,57.5z"/>
		<path class="st0" d="M29.3,59.4c-1-0.7-1.4-2-0.7-3.1l0,0c0.7-1,2-1.3,3.1-0.7l0,0c1,0.7,1.4,2,0.7,3.1l0,0
			c-0.1,0.1-0.2,0.3-0.3,0.4l0,0C31.4,59.8,30.2,60,29.3,59.4z"/>
		<path class="st0" d="M18.4,57.5c-1-0.7-1.4-2-0.7-3.1l0,0c0.7-1,2-1.3,3.1-0.7l0,0c1,0.7,1.4,2,0.7,3.1l0,0
			c-0.1,0.1-0.2,0.3-0.3,0.4l0,0C20.4,57.9,19.3,58,18.4,57.5z"/>
	</g>
	<path class="st0" d="M15.1,45.2c-0.8-0.5-1-1.6-0.5-2.4l0,0c0.5-0.8,1.6-1,2.4-0.5l0,0c0.8,0.5,1,1.6,0.5,2.4l0,0
		c-0.1,0.1-0.1,0.2-0.2,0.3l0,0C16.7,45.5,15.8,45.6,15.1,45.2z"/>
	<path class="st0" d="M10.4,38.1c-0.8-0.5-1-1.6-0.5-2.4l0,0c0.5-0.8,1.6-1,2.4-0.5l0,0c0.8,0.5,1,1.6,0.5,2.4l0,0
		c-0.1,0.1-0.1,0.2-0.2,0.3l0,0C12,38.5,11.1,38.6,10.4,38.1z"/>
	<path class="st0" d="M9,30.1c-0.8-0.5-1-1.6-0.5-2.4l0,0c0.5-0.8,1.6-1,2.4-0.5l0,0c0.8,0.5,1,1.6,0.5,2.4l0,0
		c-0.1,0.1-0.1,0.2-0.2,0.3l0,0C10.6,30.5,9.7,30.6,9,30.1z"/>
	<path class="st0" d="M10.4,21.7c-0.8-0.5-1-1.6-0.5-2.4l0,0c0.5-0.8,1.6-1,2.4-0.5l0,0c0.8,0.5,1,1.6,0.5,2.4l0,0
		c-0.1,0.1-0.1,0.2-0.2,0.3l0,0C12,22,11.1,22.1,10.4,21.7z"/>
	<path class="st0" d="M15.1,15.1c-0.8-0.5-1-1.6-0.5-2.4l0,0c0.5-0.8,1.6-1,2.4-0.5l0,0c0.8,0.5,1,1.6,0.5,2.4l0,0
		c-0.1,0.1-0.1,0.2-0.2,0.3l0,0C16.7,15.4,15.8,15.5,15.1,15.1z"/>
	<path class="st0" d="M44.8,15.1c-0.8-0.5-1-1.6-0.5-2.4l0,0c0.5-0.8,1.6-1,2.4-0.5l0,0c0.8,0.5,1,1.6,0.5,2.4l0,0
		c-0.1,0.1-0.1,0.2-0.2,0.3l0,0C46.3,15.4,45.5,15.5,44.8,15.1z"/>
	<path class="st0" d="M49.5,22.1c-0.8-0.5-1-1.6-0.5-2.4l0,0c0.5-0.8,1.6-1,2.4-0.5l0,0c0.8,0.5,1,1.6,0.5,2.4l0,0
		c-0.1,0.1-0.1,0.2-0.2,0.3l0,0C51.1,22.5,50.2,22.6,49.5,22.1z"/>
	<path class="st0" d="M50.9,30.1c-0.8-0.5-1-1.6-0.5-2.4l0,0c0.5-0.8,1.6-1,2.4-0.5l0,0c0.8,0.5,1,1.6,0.5,2.4l0,0
		c-0.1,0.1-0.1,0.2-0.2,0.3l0,0C52.5,30.5,51.6,30.6,50.9,30.1z"/>
	<path class="st0" d="M49.5,38.1c-0.8-0.5-1-1.6-0.5-2.4l0,0c0.5-0.8,1.6-1,2.4-0.5l0,0c0.8,0.5,1,1.6,0.5,2.4l0,0
		c-0.1,0.1-0.1,0.2-0.2,0.3l0,0C51.1,38.5,50.2,38.6,49.5,38.1z"/>
	<path class="st0" d="M45.2,45.2c-0.8-0.5-1-1.6-0.5-2.4l0,0c0.5-0.8,1.6-1,2.4-0.5l0,0c0.8,0.5,1,1.6,0.5,2.4l0,0
		c-0.1,0.1-0.1,0.2-0.2,0.3l0,0C46.8,45.5,45.9,45.6,45.2,45.2z"/>
	<path class="st0" d="M38.2,49.9c-0.8-0.5-1-1.6-0.5-2.4l0,0c0.5-0.8,1.6-1,2.4-0.5l0,0c0.8,0.5,1,1.6,0.5,2.4l0,0
		c-0.1,0.1-0.1,0.2-0.2,0.3l0,0C39.8,50.2,38.9,50.4,38.2,49.9z"/>
	<path class="st0" d="M29.7,51.3c-0.8-0.5-1-1.6-0.5-2.4l0,0c0.5-0.8,1.6-1,2.4-0.5l0,0c0.8,0.5,1,1.6,0.5,2.4l0,0
		c-0.1,0.1-0.1,0.2-0.2,0.3l0,0C31.3,51.7,30.4,51.8,29.7,51.3z"/>
	<path class="st0" d="M21.7,49.9c-0.8-0.5-1-1.6-0.5-2.4l0,0c0.5-0.8,1.6-1,2.4-0.5l0,0c0.8,0.5,1,1.6,0.5,2.4l0,0
		c-0.1,0.1-0.1,0.2-0.2,0.3l0,0C23.3,50.2,22.4,50.4,21.7,49.9z"/>
	<path class="st0" d="M81.6,22.8c-1,0.9-2.2,1.6-4,1.6c-3.6,0-5-3.4-5-6.5c0-3.1,1.5-6.2,5-6.2c1.6,0,2.7,0.4,3.7,1l-0.8,1.2
		c-0.8-0.6-1.7-0.8-2.8-0.8c-2.6,0-3.5,2.7-3.5,4.9c0,2.1,0.8,5.2,3.5,5.2c1.1,0,2.2-0.5,3-1.3L81.6,22.8z"/>
	<path class="st0" d="M85.8,11.9h1.6v12.3h-1.6V11.9z"/>
	<path class="st0" d="M92.5,11.9h3.6c0.8,0,5.3,0,5.3,6.1c0,6.1-4.4,6.1-5.3,6.1h-3.6V11.9z M95.5,22.9c1.7,0,4.3,0,4.3-4.8
		c0-4.7-2.6-4.8-4.3-4.8H94v9.6H95.5z"/>
	<path class="st0" d="M113.1,24.2l-1.3-3.6h-4.6l-1.3,3.6h-1.6c1.5-4.1,3.1-8.5,4.4-12.3h1.7c1.3,3.7,2.9,8.2,4.3,12.3H113.1z
		 M110.5,16.3c-0.4-1.3-0.7-2.1-0.9-2.7h0c-0.2,0.6-0.4,1.5-0.9,2.7l-1,3c0.6,0,1.3,0,1.9,0s1.3,0,1.9,0L110.5,16.3z"/>
	<path class="st0" d="M118.8,11.9h3.6c0.8,0,5.3,0,5.3,6.1c0,6.1-4.4,6.1-5.3,6.1h-3.6V11.9z M121.8,22.9c1.7,0,4.3,0,4.3-4.8
		c0-4.7-2.6-4.8-4.3-4.8h-1.5v9.6H121.8z"/>
	<path class="st0" d="M139.4,24.2l-1.3-3.6h-4.6l-1.3,3.6h-1.6c1.5-4.1,3.1-8.5,4.4-12.3h1.7c1.3,3.7,2.9,8.2,4.3,12.3H139.4z
		 M136.8,16.3c-0.4-1.3-0.7-2.1-0.9-2.7h0c-0.2,0.6-0.4,1.5-0.9,2.7l-1,3c0.6,0,1.3,0,1.9,0s1.3,0,1.9,0L136.8,16.3z"/>
	<path class="st0" d="M145.1,11.9h1.8l4.4,7.4c0.4,0.7,0.9,1.6,1.2,2.4h0.1c0-1.4-0.1-2.5-0.1-3.7v-6.1h1.5v12.3h-1.7l-4.4-7.4
		c-0.4-0.7-0.8-1.5-1.3-2.5h-0.1c0.1,1.4,0.1,2.5,0.1,3.7l0,6.2h-1.5V11.9z"/>
	<path class="st0" d="M159.1,11.9h1.6v12.3h-1.6V11.9z"/>
	<path class="st0" d="M173.4,24.2l-1.3-3.6h-4.6l-1.3,3.6h-1.6c1.5-4.1,3.1-8.5,4.4-12.3h1.7c1.3,3.7,2.9,8.2,4.3,12.3H173.4z
		 M170.8,16.3c-0.4-1.3-0.7-2.1-0.9-2.7h0c-0.2,0.6-0.4,1.5-0.9,2.7l-1,3c0.6,0,1.3,0,1.9,0s1.3,0,1.9,0L170.8,16.3z"/>
	<g>
		<path class="st0" d="M74.2,30.4h1.5v12.2h-1.5V30.4z"/>
		<path class="st0" d="M79.1,30.4h1.7l4.3,7.4c0.4,0.7,0.9,1.6,1.2,2.4h0.1c0-1.4-0.1-2.5-0.1-3.7v-6.1h1.5v12.2h-1.7l-4.3-7.4
			c-0.4-0.7-0.8-1.5-1.3-2.5h-0.1c0.1,1.3,0.1,2.5,0.1,3.7l0,6.2h-1.5V30.4z"/>
		<path class="st0" d="M93.8,31.7c-1.8,0-3.7,0-3.9,0v-1.4h9.2v1.4c-0.2,0-2,0-3.8,0v10.9h-1.5V31.7z"/>
		<path class="st0" d="M101.3,30.4h7.1v1.4c-0.2,0-3.7,0-5.6,0c0,0.2,0,2.9,0,3.8c1.7,0,4.8,0,5,0v1.3c-0.2,0-3.3,0-5,0
			c0,1.9,0,4.2,0,4.4c2,0,5.6,0,5.8,0v1.4h-7.3V30.4z"/>
		<path class="st0" d="M111.3,30.4h1.5c0,0.2,0,9.1,0,10.8c2,0,4.9,0,5.1,0v1.4h-6.6V30.4z"/>
		<path class="st0" d="M120,30.4h1.5v12.2H120V30.4z"/>
		<path class="st0" d="M130.2,42.7c-3.9,0-6-2.6-6-6.4c0-3.5,1.8-6.2,5.5-6.2c1.1,0,2.3,0.3,3.4,0.8l-0.6,1.2
			c-0.7-0.4-1.9-0.7-2.9-0.7c-2.7,0-3.7,2.2-3.7,4.9c0,3,1.3,5.1,4.5,5.1c0.6,0,1.1,0,1.5-0.3c0-0.1,0-1.9,0-4.3c-1.5,0-1.8,0-2,0
			v-1.3h3.5v6.7C132.6,42.5,131.4,42.7,130.2,42.7z"/>
		<path class="st0" d="M136.5,30.4h7.1v1.4c-0.2,0-3.7,0-5.6,0c0,0.2,0,2.9,0,3.8c1.7,0,4.8,0,5,0v1.3c-0.2,0-3.3,0-5,0
			c0,1.9,0,4.2,0,4.4c2,0,5.6,0,5.8,0v1.4h-7.3V30.4z"/>
		<path class="st0" d="M146.4,30.4h1.7l4.3,7.4c0.4,0.7,0.9,1.6,1.2,2.4h0.1c0-1.4-0.1-2.5-0.1-3.7v-6.1h1.5v12.2h-1.7l-4.3-7.4
			c-0.4-0.7-0.8-1.5-1.3-2.5h-0.1c0.1,1.3,0.1,2.5,0.1,3.7l0,6.2h-1.5V30.4z"/>
		<path class="st0" d="M161.2,31.7c-1.8,0-3.7,0-3.9,0v-1.4h9.2v1.4c-0.2,0-2,0-3.8,0v10.9h-1.5V31.7z"/>
		<path class="st0" d="M168.7,30.4h7.1v1.4c-0.2,0-3.7,0-5.6,0c0,0.2,0,2.9,0,3.8c1.7,0,4.8,0,5,0v1.3c-0.2,0-3.3,0-5,0
			c0,1.9,0,4.2,0,4.4c2,0,5.6,0,5.8,0v1.4h-7.3V30.4z"/>
	</g>
	<g>
		<g>
			<g>
				<path class="st0" d="M23.1,30.8c0.4,0,0.8,0.2,0.9,0.6c0.2,0.4,0.3,0.8,0.6,1.2c1.3,2.2,3.6,3.4,6.1,3.4c0.5,0,1,0.4,1,1
					c0,0.5-0.4,1-1,1c-3.1,0-6.1-1.7-7.7-4.4c-0.3-0.5-0.5-1-0.7-1.5c-0.2-0.5,0.1-1.1,0.6-1.2C22.9,30.8,23,30.8,23.1,30.8z"/>
			</g>
		</g>
		<circle class="st0" cx="22.6" cy="29" r="1"/>
		<g>
			<path class="st0" d="M41.2,22.1l-0.5-0.7h0c-0.5-0.7-1-1.3-1.5-1.9l-1.3,1c0.5,0.7,1.1,1.3,1.6,2.1l0.3,0.5h0
				c1.2,1.8,1.8,3.8,1.8,6c0,6-4.9,10.9-10.9,10.9c-6,0-10.9-4.9-10.9-10.9c0-2.2,0.6-4.2,1.8-6h0l0.3-0.5c0.5-0.8,1-1.4,1.6-2.1
				c1.4-1.7,2.6-3.3,2.6-5.5c0,0,0-0.6,0-0.7c0-1.4,0.6-1.9,2-1.9h2.7h2.5c1.4,0,2,0.5,2,1.9v0.7c0,2.2,1.3,3.8,2.6,5.5c0,0,0,0,0,0
				l1.3-1C38,17.8,37,16.5,37,14.9l0-0.8c0-2.2-1.3-3.5-3.6-3.5h-5.2c-3,0-3.6,1.9-3.6,3.5l0,0.7c0,1.6-1.1,2.9-2.3,4.4
				c-0.5,0.7-1,1.3-1.5,2h0l-0.5,0.7c-1.3,2-2,4.4-2,6.9c0,6.9,5.6,12.6,12.5,12.6h0h0c6.9,0,12.5-5.7,12.6-12.6
				C43.3,26.5,42.6,24.1,41.2,22.1z"/>
		</g>
		<path class="st0" d="M35.1,6.2l-8.5,0c-0.4,0-0.7,0.4-0.7,1c0,0.5,0.3,1,0.7,1l8.5,0c0.4,0,0.7-0.4,0.7-1
			C35.8,6.6,35.5,6.2,35.1,6.2z"/>
		<path class="st0" d="M35.1,2.2l-8.5,0c-0.4,0-0.7,0.4-0.7,1c0,0.5,0.3,1,0.7,1l8.5,0c0.4,0,0.7-0.4,0.7-1S35.5,2.2,35.1,2.2z"/>
	</g>
</g>
</svg>
