<?xml version="1.0" encoding="utf-8"?>
<!-- Generator: Adobe Illustrator 21.0.2, SVG Export Plug-In . SVG Version: 6.00 Build 0)  -->
<svg version="1.1" id="Capa_1" xmlns="http://www.w3.org/2000/svg" xmlns:xlink="http://www.w3.org/1999/xlink" x="0px" y="0px"
	 viewBox="0 0 176 62" style="enable-background:new 0 0 176 62;" xml:space="preserve">
<style type="text/css">
	.st0{fill:#73C5CD;}
	.st1{fill:#F8B125;}
	.st2{fill:#E7453A;}
	.st3{fill:#D2316F;}
	.st4{fill:#FFFFFF;}
</style>
<g>
	<g>
		<path class="st0" d="M9.6,51c-1-0.7-1.4-2-0.7-3.1l0,0c0.7-1,2-1.3,3.1-0.7l0,0c1,0.7,1.4,2,0.7,3.1l0,0c-0.1,0.1-0.2,0.3-0.3,0.4
			l0,0C11.7,51.4,10.5,51.6,9.6,51z"/>
		<path class="st0" d="M3.2,41.4c-1-0.7-1.4-2-0.7-3.1l0,0c0.7-1,2-1.3,3.1-0.7l0,0c1,0.7,1.4,2,0.7,3.1l0,0C6.2,40.9,6.1,41,6,41.1
			l0,0C5.3,41.8,4.1,42,3.2,41.4z"/>
		<path class="st0" d="M1.3,30.5c-1-0.7-1.4-2-0.7-3.1l0,0c0.7-1,2-1.3,3.1-0.7l0,0c1,0.7,1.4,2,0.7,3.1l0,0
			c-0.1,0.1-0.2,0.3-0.3,0.4l0,0C3.3,31,2.2,31.1,1.3,30.5z"/>
		<path class="st0" d="M3.2,19c-1-0.7-1.4-2-0.7-3.1l0,0c0.7-1,2-1.3,3.1-0.7l0,0c1,0.7,1.4,2,0.7,3.1l0,0c-0.1,0.1-0.2,0.3-0.3,0.4
			l0,0C5.3,19.4,4.1,19.6,3.2,19z"/>
		<path class="st0" d="M9.6,10.1C8.6,9.4,8.3,8,8.9,7l0,0c0.7-1,2-1.3,3.1-0.7l0,0c1,0.7,1.4,2,0.7,3.1l0,0
			c-0.1,0.1-0.2,0.3-0.3,0.4l0,0C11.7,10.5,10.5,10.6,9.6,10.1z"/>
		<path class="st0" d="M49.9,10.1c-1-0.7-1.4-2-0.7-3.1l0,0c0.7-1,2-1.3,3.1-0.7l0,0c1,0.7,1.4,2,0.7,3.1l0,0
			c-0.1,0.1-0.2,0.3-0.3,0.4l0,0C52,10.5,50.8,10.6,49.9,10.1z"/>
		<path class="st0" d="M56.3,19.6c-1-0.7-1.4-2-0.7-3.1l0,0c0.7-1,2-1.3,3.1-0.7l0,0c1,0.7,1.4,2,0.7,3.1l0,0
			c-0.1,0.1-0.2,0.3-0.3,0.4l0,0C58.4,20.1,57.2,20.2,56.3,19.6z"/>
		<path class="st0" d="M58.3,30.5c-1-0.7-1.4-2-0.7-3.1l0,0c0.7-1,2-1.3,3.1-0.7l0,0c1,0.7,1.4,2,0.7,3.1l0,0
			c-0.1,0.1-0.2,0.3-0.3,0.4l0,0C60.3,31,59.1,31.1,58.3,30.5z"/>
		<path class="st0" d="M56.3,41.4c-1-0.7-1.4-2-0.7-3.1l0,0c0.7-1,2-1.3,3.1-0.7l0,0c1,0.7,1.4,2,0.7,3.1l0,0
			c-0.1,0.1-0.2,0.3-0.3,0.4l0,0C58.4,41.8,57.2,42,56.3,41.4z"/>
		<path class="st0" d="M50.6,51c-1-0.7-1.4-2-0.7-3.1l0,0c0.7-1,2-1.3,3.1-0.7l0,0c1,0.7,1.4,2,0.7,3.1l0,0
			c-0.1,0.1-0.2,0.3-0.3,0.4l0,0C52.6,51.4,51.5,51.6,50.6,51z"/>
		<path class="st0" d="M41,57.4c-1-0.7-1.4-2-0.7-3.1l0,0c0.7-1,2-1.3,3.1-0.7l0,0c1,0.7,1.4,2,0.7,3.1l0,0
			c-0.1,0.1-0.2,0.3-0.3,0.4l0,0C43,57.8,41.9,58,41,57.4z"/>
		<path class="st0" d="M29.5,59.3c-1-0.7-1.4-2-0.7-3.1l0,0c0.7-1,2-1.3,3.1-0.7l0,0c1,0.7,1.4,2,0.7,3.1l0,0
			c-0.1,0.1-0.2,0.3-0.3,0.4l0,0C31.5,59.8,30.3,59.9,29.5,59.3z"/>
		<path class="st0" d="M18.6,57.4c-1-0.7-1.4-2-0.7-3.1l0,0c0.7-1,2-1.3,3.1-0.7l0,0c1,0.7,1.4,2,0.7,3.1l0,0
			c-0.1,0.1-0.2,0.3-0.3,0.4l0,0C20.6,57.8,19.5,58,18.6,57.4z"/>
	</g>
	<path class="st1" d="M15.3,45.2c-0.8-0.5-1-1.6-0.5-2.4l0,0c0.5-0.8,1.6-1,2.4-0.5l0,0c0.8,0.5,1,1.6,0.5,2.4l0,0
		c-0.1,0.1-0.1,0.2-0.2,0.3l0,0C16.9,45.5,16,45.6,15.3,45.2z"/>
	<path class="st2" d="M10.6,38.1c-0.8-0.5-1-1.6-0.5-2.4l0,0c0.5-0.8,1.6-1,2.4-0.5l0,0c0.8,0.5,1,1.6,0.5,2.4l0,0
		c-0.1,0.1-0.1,0.2-0.2,0.3l0,0C12.2,38.5,11.3,38.6,10.6,38.1z"/>
	<path class="st3" d="M9.2,30.1c-0.8-0.5-1-1.6-0.5-2.4l0,0c0.5-0.8,1.6-1,2.4-0.5l0,0c0.8,0.5,1,1.6,0.5,2.4l0,0
		c-0.1,0.1-0.1,0.2-0.2,0.3l0,0C10.8,30.5,9.9,30.6,9.2,30.1z"/>
	<path class="st0" d="M10.6,21.7c-0.8-0.5-1-1.6-0.5-2.4l0,0c0.5-0.8,1.6-1,2.4-0.5l0,0c0.8,0.5,1,1.6,0.5,2.4l0,0
		c-0.1,0.1-0.1,0.2-0.2,0.3l0,0C12.2,22,11.3,22.1,10.6,21.7z"/>
	<path class="st0" d="M15.3,15.1c-0.8-0.5-1-1.6-0.5-2.4l0,0c0.5-0.8,1.6-1,2.4-0.5l0,0c0.8,0.5,1,1.6,0.5,2.4l0,0
		c-0.1,0.1-0.1,0.2-0.2,0.3l0,0C16.9,15.4,16,15.6,15.3,15.1z"/>
	<path class="st1" d="M44.9,15.1c-0.8-0.5-1-1.6-0.5-2.4l0,0c0.5-0.8,1.6-1,2.4-0.5l0,0c0.8,0.5,1,1.6,0.5,2.4l0,0
		c-0.1,0.1-0.1,0.2-0.2,0.3l0,0C46.5,15.4,45.6,15.6,44.9,15.1z"/>
	<path class="st2" d="M49.6,22.2c-0.8-0.5-1-1.6-0.5-2.4l0,0c0.5-0.8,1.6-1,2.4-0.5l0,0c0.8,0.5,1,1.6,0.5,2.4l0,0
		c-0.1,0.1-0.1,0.2-0.2,0.3l0,0C51.1,22.5,50.3,22.6,49.6,22.2z"/>
	<path class="st3" d="M51,30.1c-0.8-0.5-1-1.6-0.5-2.4l0,0c0.5-0.8,1.6-1,2.4-0.5l0,0c0.8,0.5,1,1.6,0.5,2.4l0,0
		c-0.1,0.1-0.1,0.2-0.2,0.3l0,0C52.6,30.5,51.7,30.6,51,30.1z"/>
	<path class="st0" d="M49.6,38.1c-0.8-0.5-1-1.6-0.5-2.4l0,0c0.5-0.8,1.6-1,2.4-0.5l0,0c0.8,0.5,1,1.6,0.5,2.4l0,0
		c-0.1,0.1-0.1,0.2-0.2,0.3l0,0C51.1,38.5,50.3,38.6,49.6,38.1z"/>
	<path class="st0" d="M45.3,45.2c-0.8-0.5-1-1.6-0.5-2.4l0,0c0.5-0.8,1.6-1,2.4-0.5l0,0c0.8,0.5,1,1.6,0.5,2.4l0,0
		c-0.1,0.1-0.1,0.2-0.2,0.3l0,0C46.9,45.5,46,45.6,45.3,45.2z"/>
	<path class="st0" d="M38.3,49.9c-0.8-0.5-1-1.6-0.5-2.4l0,0c0.5-0.8,1.6-1,2.4-0.5l0,0c0.8,0.5,1,1.6,0.5,2.4l0,0
		c-0.1,0.1-0.1,0.2-0.2,0.3l0,0C39.9,50.2,39,50.3,38.3,49.9z"/>
	<path class="st0" d="M29.9,51.3c-0.8-0.5-1-1.6-0.5-2.4l0,0c0.5-0.8,1.6-1,2.4-0.5l0,0c0.8,0.5,1,1.6,0.5,2.4l0,0
		C32.1,50.9,32.1,51,32,51l0,0C31.4,51.6,30.5,51.7,29.9,51.3z"/>
	<path class="st0" d="M21.9,49.9c-0.8-0.5-1-1.6-0.5-2.4l0,0c0.5-0.8,1.6-1,2.4-0.5l0,0c0.8,0.5,1,1.6,0.5,2.4l0,0
		c-0.1,0.1-0.1,0.2-0.2,0.3l0,0C23.4,50.2,22.6,50.3,21.9,49.9z"/>
	<path class="st4" d="M81.7,22.8c-1,0.9-2.2,1.6-4,1.6c-3.6,0-5-3.4-5-6.5c0-3.1,1.5-6.2,5-6.2c1.6,0,2.7,0.4,3.7,1l-0.8,1.2
		c-0.8-0.6-1.7-0.8-2.8-0.8c-2.6,0-3.5,2.7-3.5,4.9c0,2.1,0.8,5.2,3.5,5.2c1.1,0,2.2-0.5,3-1.3L81.7,22.8z"/>
	<path class="st4" d="M85.8,12h1.6v12.2h-1.6V12z"/>
	<path class="st4" d="M92.5,12h3.6c0.8,0,5.2,0,5.2,6.1c0,6.1-4.4,6.1-5.2,6.1h-3.6V12z M95.4,22.9c1.7,0,4.3,0,4.3-4.8
		c0-4.7-2.6-4.8-4.3-4.8H94v9.6H95.4z"/>
	<path class="st4" d="M113.1,24.2l-1.3-3.6h-4.6l-1.3,3.6h-1.6c1.5-4.1,3.1-8.5,4.4-12.2h1.7c1.3,3.7,2.9,8.2,4.3,12.2H113.1z
		 M110.5,16.3c-0.4-1.3-0.7-2.1-0.9-2.7h0c-0.2,0.6-0.4,1.5-0.9,2.7l-1,3c0.6,0,1.3,0,1.9,0c0.6,0,1.3,0,1.9,0L110.5,16.3z"/>
	<path class="st4" d="M118.7,12h3.6c0.8,0,5.2,0,5.2,6.1c0,6.1-4.4,6.1-5.2,6.1h-3.6V12z M121.7,22.9c1.7,0,4.3,0,4.3-4.8
		c0-4.7-2.6-4.8-4.3-4.8h-1.4v9.6H121.7z"/>
	<path class="st4" d="M139.3,24.2l-1.3-3.6h-4.6l-1.3,3.6h-1.6c1.5-4.1,3.1-8.5,4.4-12.2h1.7c1.3,3.7,2.9,8.2,4.3,12.2H139.3z
		 M136.7,16.3c-0.4-1.3-0.7-2.1-0.9-2.7h0c-0.2,0.6-0.4,1.5-0.9,2.7l-1,3c0.6,0,1.3,0,1.9,0s1.3,0,1.9,0L136.7,16.3z"/>
	<path class="st4" d="M144.9,12h1.8l4.4,7.4c0.4,0.7,0.9,1.6,1.2,2.4h0.1c0-1.4-0.1-2.5-0.1-3.7V12h1.5v12.2h-1.7l-4.4-7.4
		c-0.4-0.7-0.8-1.5-1.3-2.5h-0.1c0.1,1.3,0.1,2.5,0.1,3.7l0,6.2h-1.5V12z"/>
	<path class="st4" d="M159,12h1.6v12.2H159V12z"/>
	<path class="st4" d="M173.2,24.2l-1.3-3.6h-4.6l-1.3,3.6h-1.6c1.5-4.1,3.1-8.5,4.4-12.2h1.7c1.3,3.7,2.9,8.2,4.3,12.2H173.2z
		 M170.6,16.3c-0.4-1.3-0.7-2.1-0.9-2.7h0c-0.2,0.6-0.4,1.5-0.9,2.7l-1,3c0.6,0,1.3,0,1.9,0s1.3,0,1.9,0L170.6,16.3z"/>
	<g>
		<path class="st4" d="M74.3,30.4h1.5v12.2h-1.5V30.4z"/>
		<path class="st4" d="M79.1,30.4h1.7l4.3,7.4c0.4,0.7,0.9,1.6,1.2,2.4h0.1c0-1.4-0.1-2.5-0.1-3.7v-6.1h1.5v12.2h-1.7l-4.3-7.4
			c-0.4-0.7-0.8-1.5-1.3-2.5h-0.1c0.1,1.3,0.1,2.5,0.1,3.7l0,6.2h-1.5V30.4z"/>
		<path class="st4" d="M93.8,31.7c-1.8,0-3.7,0-3.8,0v-1.4h9.2v1.4c-0.2,0-2,0-3.8,0v10.8h-1.5V31.7z"/>
		<path class="st4" d="M101.3,30.4h7.1v1.4c-0.2,0-3.7,0-5.6,0c0,0.2,0,2.9,0,3.8c1.7,0,4.8,0,5,0v1.3c-0.2,0-3.3,0-5,0
			c0,1.9,0,4.2,0,4.3c1.9,0,5.6,0,5.8,0v1.4h-7.3V30.4z"/>
		<path class="st4" d="M111.2,30.4h1.5c0,0.2,0,9.1,0,10.8c1.9,0,4.9,0,5.1,0v1.4h-6.6V30.4z"/>
		<path class="st4" d="M119.9,30.4h1.5v12.2h-1.5V30.4z"/>
		<path class="st4" d="M130.1,42.7c-3.9,0-6-2.6-6-6.4c0-3.5,1.8-6.2,5.5-6.2c1.1,0,2.3,0.3,3.4,0.8l-0.6,1.2
			c-0.7-0.4-1.9-0.7-2.9-0.7c-2.7,0-3.7,2.2-3.7,4.9c0,3,1.3,5.1,4.5,5.1c0.6,0,1.1,0,1.5-0.3c0-0.1,0-1.9,0-4.3c-1.5,0-1.8,0-2,0
			v-1.3h3.5v6.6C132.4,42.5,131.2,42.7,130.1,42.7z"/>
		<path class="st4" d="M136.4,30.4h7.1v1.4c-0.2,0-3.7,0-5.6,0c0,0.2,0,2.9,0,3.8c1.7,0,4.8,0,5,0v1.3c-0.2,0-3.3,0-5,0
			c0,1.9,0,4.2,0,4.3c1.9,0,5.6,0,5.8,0v1.4h-7.3V30.4z"/>
		<path class="st4" d="M146.3,30.4h1.7l4.3,7.4c0.4,0.7,0.9,1.6,1.2,2.4h0.1c0-1.4-0.1-2.5-0.1-3.7v-6.1h1.5v12.2h-1.7l-4.3-7.4
			c-0.4-0.7-0.8-1.5-1.3-2.5h-0.1c0.1,1.3,0.1,2.5,0.1,3.7l0,6.2h-1.5V30.4z"/>
		<path class="st4" d="M161,31.7c-1.8,0-3.7,0-3.8,0v-1.4h9.2v1.4c-0.2,0-2,0-3.8,0v10.8H161V31.7z"/>
		<path class="st4" d="M168.5,30.4h7.1v1.4c-0.2,0-3.7,0-5.6,0c0,0.2,0,2.9,0,3.8c1.7,0,4.8,0,5,0v1.3c-0.2,0-3.3,0-5,0
			c0,1.9,0,4.2,0,4.3c1.9,0,5.6,0,5.8,0v1.4h-7.3V30.4z"/>
	</g>
	<g>
		<g>
			<g>
				<path class="st4" d="M23.3,30.8c0.4,0,0.8,0.2,0.9,0.6c0.2,0.4,0.3,0.8,0.6,1.2c1.3,2.2,3.6,3.4,6.1,3.4c0.5,0,1,0.4,1,1
					c0,0.5-0.4,1-1,1c-3.1,0-6.1-1.7-7.7-4.4c-0.3-0.5-0.5-1-0.7-1.5c-0.2-0.5,0.1-1.1,0.6-1.2C23,30.8,23.2,30.8,23.3,30.8z"/>
			</g>
		</g>
		<circle class="st4" cx="22.7" cy="29" r="1"/>
		<g>
			<path class="st4" d="M41.4,22.1l-0.5-0.7h0c-0.5-0.7-1-1.3-1.5-1.9l-1.3,1c0.5,0.7,1.1,1.3,1.6,2.1L40,23h0
				c1.2,1.8,1.8,3.8,1.8,6c0,6-4.9,10.9-10.9,10.9C24.9,39.9,20,35,20,29c0-2.2,0.6-4.2,1.8-6h0l0.3-0.5c0.5-0.8,1-1.4,1.6-2.1
				c1.4-1.7,2.6-3.3,2.6-5.5c0,0,0-0.6,0-0.7c0-1.4,0.6-1.9,2-1.9H31h2.5c1.4,0,2,0.5,2,1.9V15c0,2.2,1.3,3.8,2.6,5.5c0,0,0,0,0,0
				l1.3-1c-1.3-1.6-2.3-2.9-2.3-4.4l0-0.8c0-2.2-1.3-3.5-3.6-3.5h-5.2c-2.9,0-3.6,1.9-3.6,3.5l0,0.7c0,1.6-1.1,2.9-2.3,4.4
				c-0.5,0.7-1,1.3-1.5,2h0l-0.5,0.7c-1.3,2-2,4.4-2,6.9c0,6.9,5.6,12.5,12.5,12.5h0h0c6.9,0,12.5-5.6,12.5-12.5
				C43.4,26.5,42.7,24.1,41.4,22.1z"/>
		</g>
		<path class="st4" d="M35.2,6.2l-8.5,0c-0.4,0-0.7,0.4-0.7,1c0,0.5,0.3,1,0.7,1l8.5,0c0.4,0,0.7-0.4,0.7-1
			C35.9,6.7,35.6,6.2,35.2,6.2z"/>
		<path class="st4" d="M35.2,2.3l-8.5,0c-0.4,0-0.7,0.4-0.7,1c0,0.5,0.3,1,0.7,1l8.5,0c0.4,0,0.7-0.4,0.7-1S35.6,2.3,35.2,2.3z"/>
	</g>
</g>
</svg>
