<?xml version="1.0" encoding="utf-8"?>
<!-- Generator: Adobe Illustrator 21.0.2, SVG Export Plug-In . SVG Version: 6.00 Build 0)  -->
<svg version="1.1" id="Capa_1" xmlns="http://www.w3.org/2000/svg" xmlns:xlink="http://www.w3.org/1999/xlink" x="0px" y="0px"
	 viewBox="0 0 444 175.2" style="enable-background:new 0 0 444 175.2;" xml:space="preserve">
<style type="text/css">
	.st0{fill:#73C5CD;}
	.st1{fill:#F8B125;}
	.st2{fill:#E7453A;}
	.st3{fill:#D2316F;}
	.st4{fill:#FFFFFF;}
</style>
<g>
	<g>
		<path class="st0" d="M101.3,120.3c-1.6-1-2-3.1-1.1-4.6l0,0c1-1.6,3.1-2,4.6-1l0,0c1.6,1,2,3.1,1,4.6l0,0
			c-0.1,0.2-0.3,0.4-0.5,0.6l0,0C104.4,120.9,102.6,121.1,101.3,120.3z"/>
		<path class="st0" d="M91.6,105.8c-1.6-1-2-3.1-1-4.6l0,0c1-1.6,3.1-2,4.6-1l0,0c1.6,1,2,3.1,1,4.6l0,0c-0.1,0.2-0.3,0.4-0.5,0.6
			l0,0C94.7,106.5,93,106.7,91.6,105.8z"/>
		<path class="st0" d="M88.8,89.4c-1.6-1-2-3.1-1.1-4.6l0,0c1-1.6,3.1-2,4.6-1l0,0c1.6,1,2,3.1,1,4.6l0,0c-0.1,0.2-0.3,0.4-0.5,0.6
			l0,0C91.8,90.1,90.1,90.3,88.8,89.4z"/>
		<path class="st0" d="M91.6,72.1c-1.6-1-2-3.1-1-4.6l0,0c1-1.6,3.1-2,4.6-1l0,0c1.6,1,2,3.1,1,4.6l0,0c-0.1,0.2-0.3,0.4-0.5,0.6
			l0,0C94.7,72.7,93,73,91.6,72.1z"/>
		<path class="st0" d="M101.3,58.6c-1.6-1-2-3.1-1.1-4.6l0,0c1-1.6,3.1-2,4.6-1l0,0c1.6,1,2,3.1,1,4.6l0,0c-0.1,0.2-0.3,0.4-0.5,0.6
			l0,0C104.4,59.2,102.6,59.5,101.3,58.6z"/>
		<path class="st0" d="M162,58.6c-1.6-1-2-3.1-1.1-4.6l0,0c1-1.6,3.1-2,4.6-1l0,0c1.6,1,2,3.1,1,4.6l0,0c-0.1,0.2-0.3,0.4-0.5,0.6
			l0,0C165.1,59.2,163.3,59.5,162,58.6z"/>
		<path class="st0" d="M171.6,73.1c-1.6-1-2-3.1-1.1-4.6l0,0c1-1.6,3.1-2,4.6-1l0,0c1.6,1,2,3.1,1,4.6l0,0c-0.1,0.2-0.3,0.4-0.5,0.6
			l0,0C174.7,73.7,173,73.9,171.6,73.1z"/>
		<path class="st0" d="M174.5,89.4c-1.6-1-2-3.1-1-4.6l0,0c1-1.6,3.1-2,4.6-1l0,0c1.6,1,2,3.1,1,4.6l0,0c-0.1,0.2-0.3,0.4-0.5,0.6
			l0,0C177.6,90.1,175.9,90.3,174.5,89.4z"/>
		<path class="st0" d="M171.6,105.8c-1.6-1-2-3.1-1.1-4.6l0,0c1-1.6,3.1-2,4.6-1l0,0c1.6,1,2,3.1,1,4.6l0,0
			c-0.1,0.2-0.3,0.4-0.5,0.6l0,0C174.7,106.5,173,106.7,171.6,105.8z"/>
		<path class="st0" d="M163,120.3c-1.6-1-2-3.1-1-4.6l0,0c1-1.6,3.1-2,4.6-1l0,0c1.6,1,2,3.1,1,4.6l0,0c-0.1,0.2-0.3,0.4-0.5,0.6
			l0,0C166,120.9,164.3,121.1,163,120.3z"/>
		<path class="st0" d="M148.5,129.9c-1.6-1-2-3.1-1.1-4.6l0,0c1-1.6,3.1-2,4.6-1l0,0c1.6,1,2,3.1,1,4.6l0,0
			c-0.1,0.2-0.3,0.4-0.5,0.6l0,0C151.6,130.6,149.9,130.8,148.5,129.9z"/>
		<path class="st0" d="M131.2,132.8c-1.6-1-2-3.1-1-4.6l0,0c1-1.6,3.1-2,4.6-1l0,0c1.6,1,2,3.1,1,4.6l0,0c-0.1,0.2-0.3,0.4-0.5,0.6
			l0,0C134.2,133.4,132.5,133.7,131.2,132.8z"/>
		<path class="st0" d="M114.8,129.9c-1.6-1-2-3.1-1-4.6l0,0c1-1.6,3.1-2,4.6-1l0,0c1.6,1,2,3.1,1,4.6l0,0c-0.1,0.2-0.3,0.4-0.5,0.6
			l0,0C117.9,130.6,116.1,130.8,114.8,129.9z"/>
	</g>
	<path class="st1" d="M109.8,111.5c-1.2-0.8-1.6-2.4-0.8-3.6l0,0c0.8-1.2,2.4-1.6,3.6-0.8l0,0c1.2,0.8,1.6,2.4,0.8,3.6l0,0
		c-0.1,0.2-0.2,0.3-0.3,0.4l0,0C112.2,112,110.9,112.1,109.8,111.5z"/>
	<path class="st2" d="M102.8,100.9c-1.2-0.8-1.6-2.4-0.8-3.6l0,0c0.8-1.2,2.3-1.6,3.6-0.8l0,0c1.2,0.8,1.6,2.4,0.8,3.6l0,0
		c-0.1,0.2-0.2,0.3-0.3,0.4l0,0C105.1,101.4,103.8,101.5,102.8,100.9z"/>
	<path class="st3" d="M100.6,88.9c-1.2-0.8-1.6-2.4-0.8-3.6l0,0c0.8-1.2,2.4-1.6,3.6-0.8l0,0c1.2,0.8,1.6,2.4,0.8,3.6l0,0
		c-0.1,0.2-0.2,0.3-0.3,0.4l0,0C103,89.3,101.7,89.5,100.6,88.9z"/>
	<path class="st0" d="M102.8,76.1c-1.2-0.8-1.6-2.4-0.8-3.6l0,0c0.8-1.2,2.3-1.6,3.6-0.8l0,0c1.2,0.8,1.6,2.4,0.8,3.6l0,0
		c-0.1,0.2-0.2,0.3-0.3,0.4l0,0C105.1,76.6,103.8,76.8,102.8,76.1z"/>
	<path class="st0" d="M109.8,66.2c-1.2-0.8-1.6-2.4-0.8-3.6l0,0c0.8-1.2,2.4-1.6,3.6-0.8l0,0c1.2,0.8,1.6,2.4,0.8,3.6l0,0
		c-0.1,0.2-0.2,0.3-0.3,0.4l0,0C112.2,66.7,110.9,66.9,109.8,66.2z"/>
	<path class="st1" d="M154.4,66.2c-1.2-0.8-1.6-2.4-0.8-3.6l0,0c0.8-1.2,2.4-1.6,3.6-0.8l0,0c1.2,0.8,1.6,2.4,0.8,3.6l0,0
		c-0.1,0.2-0.2,0.3-0.3,0.4l0,0C156.8,66.7,155.4,66.9,154.4,66.2z"/>
	<path class="st2" d="M161.5,76.8c-1.2-0.8-1.6-2.4-0.8-3.6l0,0c0.8-1.2,2.4-1.6,3.6-0.8l0,0c1.2,0.8,1.6,2.4,0.8,3.6l0,0
		c-0.1,0.2-0.2,0.3-0.3,0.4l0,0C163.8,77.3,162.5,77.5,161.5,76.8z"/>
	<path class="st3" d="M163.6,88.9c-1.2-0.8-1.6-2.4-0.8-3.6l0,0c0.8-1.2,2.4-1.6,3.6-0.8l0,0c1.2,0.8,1.6,2.4,0.8,3.6l0,0
		c-0.1,0.2-0.2,0.3-0.3,0.4l0,0C166,89.3,164.6,89.5,163.6,88.9z"/>
	<path class="st0" d="M161.5,100.9c-1.2-0.8-1.6-2.4-0.8-3.6l0,0c0.8-1.2,2.4-1.6,3.6-0.8l0,0c1.2,0.8,1.6,2.4,0.8,3.6l0,0
		c-0.1,0.2-0.2,0.3-0.3,0.4l0,0C163.8,101.4,162.5,101.5,161.5,100.9z"/>
	<path class="st0" d="M155.1,111.5c-1.2-0.8-1.6-2.4-0.8-3.6l0,0c0.8-1.2,2.4-1.6,3.6-0.8l0,0c1.2,0.8,1.6,2.4,0.8,3.6l0,0
		c-0.1,0.2-0.2,0.3-0.3,0.4l0,0C157.5,112,156.1,112.1,155.1,111.5z"/>
	<path class="st0" d="M144.5,118.6c-1.2-0.8-1.6-2.4-0.8-3.6l0,0c0.8-1.2,2.4-1.6,3.6-0.8l0,0c1.2,0.8,1.6,2.4,0.8,3.6l0,0
		c-0.1,0.2-0.2,0.3-0.3,0.4l0,0C146.9,119,145.5,119.2,144.5,118.6z"/>
	<path class="st0" d="M131.8,120.7c-1.2-0.8-1.6-2.4-0.8-3.6l0,0c0.8-1.2,2.4-1.6,3.6-0.8l0,0c1.2,0.8,1.6,2.4,0.8,3.6l0,0
		c-0.1,0.2-0.2,0.3-0.3,0.4l0,0C134.1,121.2,132.8,121.3,131.8,120.7z"/>
	<path class="st0" d="M119.7,118.6c-1.2-0.8-1.6-2.4-0.8-3.6l0,0c0.8-1.2,2.4-1.6,3.6-0.8l0,0c1.2,0.8,1.6,2.4,0.8,3.6l0,0
		c-0.1,0.2-0.2,0.3-0.3,0.4l0,0C122.1,119,120.8,119.2,119.7,118.6z"/>
	<path class="st4" d="M209.8,77.9c-1.5,1.3-3.3,2.4-6.1,2.4c-5.4,0-7.5-5.1-7.5-9.8c0-4.7,2.3-9.4,7.5-9.4c2.4,0,4,0.6,5.5,1.5
		l-1.2,1.8c-1.2-0.8-2.6-1.3-4.2-1.3c-3.9,0-5.2,4.1-5.2,7.3c0,3.2,1.2,7.8,5.3,7.8c1.7,0,3.3-0.7,4.6-1.9L209.8,77.9z"/>
	<path class="st4" d="M216,61.5h2.3v18.4H216V61.5z"/>
	<path class="st4" d="M226,61.5h5.5c1.2,0,7.9,0,7.9,9.2c0,9.2-6.7,9.2-7.9,9.2H226V61.5z M230.5,77.9c2.6,0,6.4-0.1,6.4-7.2
		c0-7.1-3.9-7.2-6.4-7.2h-2.2v14.5H230.5z"/>
	<path class="st4" d="M257.1,79.9l-1.9-5.5h-6.9l-2,5.5h-2.4c2.2-6.1,4.6-12.8,6.7-18.4h2.6c2,5.6,4.3,12.3,6.4,18.4H257.1z
		 M253.2,68.1c-0.6-1.9-1-3.2-1.3-4.1h-0.1c-0.3,0.9-0.7,2.2-1.3,4.1l-1.6,4.5c0.9,0,2,0,2.9,0s2,0,2.9,0L253.2,68.1z"/>
	<path class="st4" d="M265.5,61.5h5.5c1.2,0,7.9,0,7.9,9.2c0,9.2-6.7,9.2-7.9,9.2h-5.5V61.5z M270,77.9c2.6,0,6.4-0.1,6.4-7.2
		c0-7.1-3.9-7.2-6.4-7.2h-2.2v14.5H270z"/>
	<path class="st4" d="M296.6,79.9l-1.9-5.5h-6.9l-2,5.5h-2.4c2.2-6.1,4.6-12.8,6.7-18.4h2.6c2,5.6,4.3,12.3,6.4,18.4H296.6z
		 M292.7,68.1c-0.6-1.9-1-3.2-1.3-4.1h-0.1c-0.3,0.9-0.7,2.2-1.3,4.1l-1.6,4.5c0.9,0,2,0,2.9,0c0.9,0,2,0,2.9,0L292.7,68.1z"/>
	<path class="st4" d="M305.1,61.5h2.7l6.7,11.1c0.6,1,1.3,2.4,1.8,3.7h0.1c-0.1-2.1-0.1-3.8-0.1-5.6v-9.2h2.3v18.4h-2.6l-6.7-11.1
		c-0.6-1.1-1.2-2.2-2-3.8h-0.1c0.1,2,0.1,3.8,0.1,5.6l0,9.4h-2.3V61.5z"/>
	<path class="st4" d="M326.2,61.5h2.3v18.4h-2.3V61.5z"/>
	<path class="st4" d="M347.6,79.9l-1.9-5.5h-6.9l-2,5.5h-2.4c2.2-6.1,4.6-12.8,6.7-18.4h2.6c2,5.6,4.3,12.3,6.4,18.4H347.6z
		 M343.7,68.1c-0.6-1.9-1-3.2-1.3-4.1h-0.1c-0.3,0.9-0.7,2.2-1.3,4.1l-1.6,4.5c0.9,0,2,0,2.9,0c0.9,0,2,0,2.9,0L343.7,68.1z"/>
	<g>
		<path class="st4" d="M198.6,89.2h2.3v18.3h-2.3V89.2z"/>
		<path class="st4" d="M205.9,89.2h2.6l6.5,11.1c0.6,1,1.3,2.3,1.8,3.6h0.1c-0.1-2.1-0.1-3.8-0.1-5.5v-9.2h2.2v18.3h-2.5L210,96.5
			c-0.6-1.1-1.2-2.2-1.9-3.8h-0.1c0.1,2,0.1,3.8,0.1,5.5l0,9.3h-2.2V89.2z"/>
		<path class="st4" d="M228.1,91.2c-2.7,0.1-5.5,0.1-5.8,0.1v-2h13.8v2c-0.3,0-3,0-5.8-0.1v16.3h-2.3V91.2z"/>
		<path class="st4" d="M239.3,89.2H250v2.1c-0.3,0-5.6,0-8.4,0c0,0.3,0,4.4,0,5.8c2.6,0,7.2,0,7.5,0v2c-0.3,0-4.9,0-7.5,0
			c0,2.9,0,6.3,0,6.5c2.9,0,8.4,0,8.7,0v2.1h-11V89.2z"/>
		<path class="st4" d="M254.3,89.2h2.3c0,0.3,0,13.7-0.1,16.3c2.9-0.1,7.4-0.1,7.7-0.1v2.1h-9.9V89.2z"/>
		<path class="st4" d="M267.4,89.2h2.3v18.3h-2.3V89.2z"/>
		<path class="st4" d="M282.7,107.8c-5.9,0-9-3.9-9-9.6c0-5.3,2.6-9.3,8.2-9.3c1.7,0,3.5,0.4,5.1,1.2l-0.9,1.9
			c-1.1-0.6-2.8-1.1-4.4-1.1c-4.1,0-5.6,3.3-5.6,7.3c0,4.5,1.9,7.7,6.8,7.7c0.9,0,1.6-0.1,2.3-0.4c0-0.2,0-2.9,0.1-6.5
			c-2.2,0.1-2.8,0.1-3,0.1v-2h5.3v10C286.3,107.5,284.5,107.8,282.7,107.8z"/>
		<path class="st4" d="M292.2,89.2h10.7v2.1c-0.3,0-5.6,0-8.4,0c0,0.3,0,4.4,0,5.8c2.6,0,7.2,0,7.5,0v2c-0.3,0-4.9,0-7.5,0
			c0,2.9,0,6.3,0,6.5c2.9,0,8.4,0,8.7,0v2.1h-11V89.2z"/>
		<path class="st4" d="M307.1,89.2h2.6l6.5,11.1c0.6,1,1.3,2.3,1.8,3.6h0.1c-0.1-2.1-0.1-3.8-0.1-5.5v-9.2h2.2v18.3h-2.5l-6.5-11.1
			c-0.6-1.1-1.2-2.2-1.9-3.8h-0.1c0.1,2,0.1,3.8,0.1,5.5l0,9.3h-2.2V89.2z"/>
		<path class="st4" d="M329.2,91.2c-2.7,0.1-5.5,0.1-5.8,0.1v-2h13.8v2c-0.3,0-3,0-5.8-0.1v16.3h-2.3V91.2z"/>
		<path class="st4" d="M340.5,89.2h10.7v2.1c-0.3,0-5.6,0-8.4,0c0,0.3,0,4.4,0,5.8c2.6,0,7.2,0,7.5,0v2c-0.3,0-4.9,0-7.5,0
			c0,2.9,0,6.3,0,6.5c2.9,0,8.4,0,8.7,0v2.1h-11V89.2z"/>
	</g>
	<g>
		<g>
			<g>
				<path class="st4" d="M121.9,89.8c0.6,0,1.2,0.4,1.4,1c0.2,0.6,0.5,1.2,0.9,1.8c1.9,3.2,5.4,5.2,9.1,5.2c0.8,0,1.5,0.6,1.5,1.5
					c0,0.8-0.7,1.5-1.5,1.5c-4.7,0-9.2-2.5-11.6-6.6c-0.4-0.7-0.8-1.5-1.1-2.3c-0.3-0.8,0.1-1.6,0.9-1.9
					C121.5,89.9,121.7,89.8,121.9,89.8z"/>
			</g>
		</g>
		<circle class="st4" cx="121" cy="87.1" r="1.5"/>
		<g>
			<path class="st4" d="M149.1,76.8l-0.7-1.1h0c-0.7-1.1-1.5-2-2.2-2.9l-1.9,1.5c0.8,1,1.6,2,2.4,3.1l0.5,0.7h0
				c1.7,2.6,2.6,5.7,2.6,9c0,9-7.4,16.4-16.4,16.4c-9,0-16.4-7.4-16.4-16.4c0-3.3,0.9-6.4,2.7-9h0l0.5-0.7c0.8-1.1,1.6-2.2,2.4-3.2
				c2-2.6,4-5,4-8.2c0,0,0-1,0-1.1c0-2.1,0.9-2.8,3-2.8h4.1h3.7c2.2,0,3,0.8,3,2.8V66c0,3.2,1.9,5.7,4,8.2c0,0,0,0,0,0l1.9-1.6
				c-1.9-2.4-3.4-4.3-3.4-6.7l0-1.1c-0.1-3.4-2-5.2-5.5-5.2h-7.8c-4.4,0-5.4,2.9-5.5,5.2l0,1.1c0,2.4-1.6,4.4-3.4,6.7
				c-0.8,1-1.5,1.9-2.2,2.9h0l-0.7,1.1c-2,3-3.1,6.6-3.1,10.4c0,10.4,8.4,18.9,18.8,18.9h0h0c10.4,0,18.9-8.5,18.9-18.9
				C152.1,83.4,151.1,79.8,149.1,76.8z"/>
		</g>
		<path class="st4" d="M139.8,52.9l-12.7,0c-0.6,0-1.1,0.6-1.1,1.4c0,0.8,0.5,1.4,1.1,1.4l12.7,0c0.6,0,1.1-0.6,1.1-1.4
			C140.9,53.5,140.4,52.9,139.8,52.9z"/>
		<path class="st4" d="M139.8,47l-12.7,0c-0.6,0-1.1,0.6-1.1,1.4c0,0.8,0.5,1.4,1.1,1.4l12.7,0c0.6,0,1.1-0.6,1.1-1.4
			C140.9,47.6,140.4,47,139.8,47z"/>
	</g>
</g>
</svg>
